<mxfile host="app.diagrams.net" modified="2022-05-05T08:51:02.889Z" agent="5.0 (Windows NT 10.0; Win64; x64) AppleWebKit/537.36 (KHTML, like Gecko) Chrome/100.0.4896.127 Safari/537.36" etag="QXDElSfrr9fRm4AxsNoY" version="15.7.3" type="github">
  <diagram id="6scLloylz0JWP-kibUpu" name="Page-1">
    <mxGraphModel dx="1422" dy="705" grid="1" gridSize="10" guides="1" tooltips="1" connect="1" arrows="1" fold="1" page="1" pageScale="1" pageWidth="827" pageHeight="1169" math="0" shadow="0">
      <root>
        <mxCell id="0" />
        <mxCell id="1" parent="0" />
        <mxCell id="7OSYwrfunuPEWSIrKeCt-1" value="WEB site knowyourcountry" style="rounded=0;whiteSpace=wrap;html=1;fillColor=#dae8fc;strokeColor=#6c8ebf;" parent="1" vertex="1">
          <mxGeometry x="280" y="60" width="190" height="70" as="geometry" />
        </mxCell>
        <mxCell id="7OSYwrfunuPEWSIrKeCt-3" value="" style="shape=flexArrow;endArrow=classic;html=1;rounded=0;endWidth=27;endSize=5.89;width=8;" parent="1" edge="1">
          <mxGeometry width="50" height="50" relative="1" as="geometry">
            <mxPoint x="374.5" y="130" as="sourcePoint" />
            <mxPoint x="374.5" y="190" as="targetPoint" />
          </mxGeometry>
        </mxCell>
        <mxCell id="7OSYwrfunuPEWSIrKeCt-4" value="&lt;b&gt;&lt;span style=&quot;font-size: 16px&quot;&gt;Extraction&lt;/span&gt;&lt;br&gt;&lt;/b&gt;&lt;div&gt;&lt;b&gt;&lt;br style=&quot;color: rgb(0 , 0 , 0) ; font-family: &amp;#34;helvetica&amp;#34; ; font-size: 12px ; font-style: normal ; letter-spacing: normal ; text-align: left ; text-indent: 0px ; text-transform: none ; word-spacing: 0px ; background-color: rgb(248 , 249 , 250)&quot;&gt;&lt;br&gt;&lt;/b&gt;&lt;br&gt;&lt;/div&gt;" style="ellipse;whiteSpace=wrap;html=1;aspect=fixed;fillColor=#d5e8d4;strokeColor=#82b366;" parent="1" vertex="1">
          <mxGeometry x="307.5" y="200" width="130" height="130" as="geometry" />
        </mxCell>
        <mxCell id="7OSYwrfunuPEWSIrKeCt-6" value="" style="shape=image;verticalLabelPosition=bottom;labelBackgroundColor=#ffffff;verticalAlign=top;aspect=fixed;imageAspect=0;image=https://upload.wikimedia.org/wikipedia/commons/thumb/c/c3/Python-logo-notext.svg/1200px-Python-logo-notext.svg.png;" parent="1" vertex="1">
          <mxGeometry x="345" y="260" width="40" height="40" as="geometry" />
        </mxCell>
        <mxCell id="7OSYwrfunuPEWSIrKeCt-11" value="" style="shape=flexArrow;endArrow=classic;html=1;rounded=0;endWidth=27;endSize=5.89;width=8;" parent="1" edge="1">
          <mxGeometry width="50" height="50" relative="1" as="geometry">
            <mxPoint x="372" y="330" as="sourcePoint" />
            <mxPoint x="372" y="390" as="targetPoint" />
          </mxGeometry>
        </mxCell>
        <mxCell id="7OSYwrfunuPEWSIrKeCt-12" value="CSV" style="shape=note;whiteSpace=wrap;html=1;backgroundOutline=1;darkOpacity=0.05;fillColor=#d5e8d4;strokeColor=#82b366;" parent="1" vertex="1">
          <mxGeometry x="335" y="400" width="80" height="100" as="geometry" />
        </mxCell>
        <mxCell id="7OSYwrfunuPEWSIrKeCt-13" value="&lt;b style=&quot;font-size: 16px&quot;&gt;&lt;br&gt;Transformation&amp;nbsp;&lt;br&gt;&lt;/b&gt;" style="ellipse;whiteSpace=wrap;html=1;aspect=fixed;fillColor=#f8cecc;strokeColor=#b85450;" parent="1" vertex="1">
          <mxGeometry x="295" y="580" width="165" height="165" as="geometry" />
        </mxCell>
        <mxCell id="7OSYwrfunuPEWSIrKeCt-14" value="" style="shape=image;verticalLabelPosition=bottom;labelBackgroundColor=#ffffff;verticalAlign=top;aspect=fixed;imageAspect=0;image=data:image/png,iVBORw0KGgoAAAANSUhEUgAAAQsAAAC9CAMAAACTb6i8AAAAwFBMVEX///8TB1QAAEcAAEwAAEm9u8zFw9IAAE8AAEsJAFESBVQNAFL/ygDLydYAAETt7PEAAEFNSHfnBIg4M2eQjaaxsL8nIV719PkAAD9CO3GEgZ59e5VtaY4hF12qqLtWUX397PXc2uWcmbH/00b/zzHvfLRgXYT/78v/++nqMZjxjL/w7/Tj4ukAADuZlq87NG0dEV4yK2V0cZJOSXcwKGbU0t5oYoz/zRvzl8fmAH/2tdUAADYAAC5HQXQoHmMUAFoOlZrsAAAKYElEQVR4nO2dDXfiuBVAQTbItopwdiEGh9gD3bJtIUA8YdrtbJL//6/Wlp78LNmZBGa6acO75+yZNTzL1tW3DKTXIwiCIAiCIAiCIAiCIM5huzJs3/tW3p3BXaC5G773rbw7A9bXMHJBLpDLcrE8Asuudy/LxTyWivi6693LcnEV6syGP3e9Sy4QcoGQC4RcIOQCIRcIuUDIBUIuEHKBkAuEXCDkAiEXyMd2cXzMNVcjdey4yPK1Jt9Uhx/bxTDmGjlQx46LCYO32bg6/OAu6tyBCy9UcHDh6Xej4AJdfNnPFftcHV60CwdygZALhFwg5AK5aBe/1qjDi3bxy1+Af6nDi3bxV+PiF3VILsiFOiYX5KKCXCDkAiEXCM0vENfF32vUYTpjmrsLdOGwHRnU4UW7cCAXCLlAyAVyWS72d7FidtsVfVkunGdF//6H4VN1eNEu/vnbT5rfPlWH5ELxqTokF+RCHZILcqGOyQW5qKAxFXnFxX/+ZvhUHV60CwdygZALhFwg5AK5aBejHfzGwy6pDi/axSSGH3mIL/CZgOvikp8V7e9miruDOnRdfNXfdpdfL8GFg+MiWRqSP/c2/xROc/GxIRcIuUDIBUIuEHKBkAuEXCDkAiEXCLlAyAVCLhBygbzmQnoK2Nf62LziYpBONOlH3LBwOO1zfB8bcoGQC2QohYZclC70712E5IIgCIIgCIIgiP8fPP0Jnt8/4kd0TuVW6MX+6L1v5H8AcoGQC4RcIOQCIRcIuUDIBUIukHd3kQBwNLh5PIjb9eTFefBmmj5Gz7fr3dJOoDO53mhSBj/lk87sbbOb/fPzQ7GCpF5wMZysb8Xh8cY8Y3AuoTlO8gOPZ/z+Znr+Q+unWfVLHXeL6v/HRcy8UAjBPclXXdHjxczXEYF8zqpXNvqnPr5mOoDr5L6ogx2TJrnn1tOSZR6rpEIexIfsRRcrj3m8TCP0mExVNtfq10VmD42gTMgyKOr3o9Dz4/vsTBdz9f0Ovu5Vv33lRX2D8EW7MNOY9xsRvKw9Y32OP9UR16JObij8RnLx2k5qMWsmxW6PnS6G3Bd1VOTFaeVCnRjO66BkLjGoesuPJ2c9xdcuwsde8uD3LcRsZ4cm80bmdAaL3laf5bjIq28QWTfY9xeNpMaHwL5YGK86XExmdhqRXxp4DG0XSZ/3HcTsO1yIh95tK8V+bLeTvdeKkMVYdrgIr3q7uBU7rVPaiNbFonh177qYyNYFvfveg7BdPEJaZWvjoU6iLNrvcPGUVymGAZOSeXVhzJqtPK9VNML8Be9wIeYjWVWhiJfNuC4sUSd1zxtJMRbwKtg00NpFVuuMuM+Yry7o5de2i6kWJpi4KorPhxkrEwucGn2Si1Jq+Z/cr47L5SgNTQUW/qYOXJlCEnJehQ1TXsmBXNkuoutD+W8ovfXNgjNjg5k+rajTl/e74XGU5bJRT4yLrTQt0vOL6eg4TFUHZIp+bmVAcBj5klEhgzOHZXBRpR7WA+kkhtvw6kaemE6MY59a1HfruOhH5T/sUQcOhTnzs45ZmtT5rUlqm5uPbaCLHPxEMjUXzLAnNS7GuvL4zdxPvp73AajaRXjbSGBgchmbvxWeQlnyh0ZYVstwXFTtv66nW2h0gutT15BJjkNBmX4tA1wcY6MC+5netm5yxsVInRdxK1NnfhbMuGg2hyqXcGselEkCNyFC6zork4OWi2YOJuBRqknVlmmB4sm6kYXpjsAFdETYshRLY99x4f+Iv+9uXPjOBOVK34rp8MwXSd1PmNSnOy6CtBG0Zc2glTFjN+rENCXtIoGulOf2BY1X4+KouzHT/r4L03cK5/UR3L88qsMC1Lh/NXlgZbN24ST3pF8NlG/49m457nbnUrswn/tiRzsqgTmOcZFAU+L83NkmAi681H0jbN6/yaM3caJMaTounOQg+2qoSyBhtyKW40bTBZhxGlKvbjv1OGK+GC2C+OrlZdSbABft71BDD+cVKsv8pTVk3jW/6PuDriBlaAsFyVot/Lp5Dbg8L9yoqW+7GOCkrlyzxPnUPeHtgAvZurOdLhi1tChn2rpmxhs3DD7g7bhw1C4aLqDyi0Ors4fsaxemKrVqPjRenHfm1nSYs/MbC7iIW3eWaRe6WUPvF7HW+dATvt0F9DDivpVU0XTxc2ili0BTaqzNHuy1QbmqXLonvQ3jolXgGdRF9fsEZiSQrfOzH+ci9d7iYhO7Lnq5swwU8Xn9xottxNQLNVjVbaRVfU6uF6aNtDpFu15AG2n1sB31ovQrGG8uoaPZWTXD9J1H9w3oCLiahW/gUrIVVpzaX0BeIt6qiXnTBXQe7VVWq79QDNZSBugjbNe6NwAugtY21t4abA8vDIQm7O0uNsFLWp+b4wg4bs+hoCI6LkqW2UIys8aT56zOwEXrmmNoFTA6QplxZ3eqbjxvd2F6gtZU5WjNL2DoNGsY5LMzv7AYrWGEbaX+FswkOnY6DBhS+/D9HyiNSDo7q9DfneICSly4P4ZcmAWIcmGmIW5NNK93u6hWlbrQ8u63v4lx4ZycBPYOkVlQ8YUVZqrFKS6GUP6+3SzrVRfM5+5hcRDZ92sWuS+5MNuh5+xs1Wt2afVSc1NIZkyDtVpfWuV0b84+wYVZnURWf508maTAxQq2Xz2rWdY7SjjvdDKk+/z2fPUN4F5OjE0smUPVx1IxpdncBE329XbUKS7MQl80NmA213VS4MJM+/t+QwbuotZ7Ob9f2Z2wrhdn7fKhi76/1zlIVn7dHeNU57N5jc3hZldB+dLpbaTXuzXLqbjYmiuGdVJmzVPvjXgHKPvjI+5+GRcDn8fzKXawsP3ZHqVOcFHlIWRsfXOzjwMzjfManci23rcMmb++WTyoMMFPHkfK3j6udzLjpzRNH+NqnA3DyHKBO8SCsUWaFlxW9+rZLqrOO/TjfDc8LrfLaQ4zsYfeGZj9i0c1UFQb11hRQtEc0AZ1DjBM8EHX85FXXPR2uNkvPM/Tj6vuYaZbuxjj7mZ5QdhRl5n9TECP0BGvtualNBX6vEk4uPAHu7g5i1V3J+wBNHOm/VWBLDufj7zmopd2XGwDs3PcF1iy0ImKyk5t33xWlHx1E1JJnNNzoousN20+IKy6+bk7zRlKO8J/2va2QcczxFddlF6tbAo235jZdWOPZBvZj9d4nJmVinExkYFbQiK2B/4zXPS2n+P6MVEYyI6eeJw3InxWRYx99Z3sGFwcAnU4s118YepV1tjtWu5lvXwI9Z7DcabPbU6fi1l9QeHFedXVrtUVgz1EJJOA8YYO4QfnbufMm+vBZcol8wOfzR5W3fvqxyJQEXK21xHJjQYyMEk19jpxBUHWTY4WUl+sHAfUC+NCBRXWudvU01HSu9k2E2tMsoeFiFlQlULA4qfz9z3nztp4OcxW2ehbn2FYjrLV4PhDvo5eJTUdtRasblR1S8Nvr8LHw9UkvUmz0fc8G3BdXDLkAiEXCLlAyAVCLhBygZALhFwg5AIhF8g9Uz9pPyMXvV6m/9jB7pz9QYIgCIIgCIIgCIIgCOK/wR8m/eVIxxIQ5QAAAABJRU5ErkJggg==;" parent="1" vertex="1">
          <mxGeometry x="340" y="600" width="75" height="53.08" as="geometry" />
        </mxCell>
        <mxCell id="7OSYwrfunuPEWSIrKeCt-16" value="" style="shape=flexArrow;endArrow=classic;html=1;rounded=0;endWidth=27;endSize=6.11;width=8;" parent="1" edge="1">
          <mxGeometry width="50" height="50" relative="1" as="geometry">
            <mxPoint x="374.5" y="500" as="sourcePoint" />
            <mxPoint x="374.5" y="560" as="targetPoint" />
          </mxGeometry>
        </mxCell>
        <mxCell id="7OSYwrfunuPEWSIrKeCt-24" value="" style="shape=flexArrow;endArrow=classic;html=1;rounded=0;endWidth=27;endSize=6.11;width=8;" parent="1" edge="1">
          <mxGeometry width="50" height="50" relative="1" as="geometry">
            <mxPoint x="377" y="745" as="sourcePoint" />
            <mxPoint x="377" y="805" as="targetPoint" />
          </mxGeometry>
        </mxCell>
        <mxCell id="_7CR2dzUpwFFZfgv5Ka1-1" value="&lt;h1&gt;&lt;/h1&gt;&lt;h3&gt;&lt;/h3&gt;&lt;h6&gt;&lt;/h6&gt;&lt;h6&gt;&lt;/h6&gt;&lt;h4&gt;&lt;pre&gt;&lt;ol&gt;&lt;li&gt;&lt;b&gt;PAYS&lt;br/&gt;&lt;br/&gt;&lt;/b&gt;&lt;/li&gt;&lt;li&gt;&lt;b&gt;RISK&lt;br/&gt;&lt;br/&gt;&lt;/b&gt;&lt;/li&gt;&lt;li&gt;&lt;b&gt;Source date&lt;br/&gt;&lt;br/&gt;&lt;/b&gt;&lt;/li&gt;&lt;li&gt;&lt;b&gt;Source name&lt;/b&gt;&lt;/li&gt;&lt;/ol&gt;&lt;/pre&gt;&lt;/h4&gt;" style="text;strokeColor=#82b366;fillColor=#d5e8d4;html=1;whiteSpace=wrap;verticalAlign=middle;overflow=hidden;" vertex="1" parent="1">
          <mxGeometry x="600" y="120" width="140" height="140" as="geometry" />
        </mxCell>
        <mxCell id="_7CR2dzUpwFFZfgv5Ka1-2" value="&lt;table border=&quot;1&quot; width=&quot;100%&quot; cellpadding=&quot;4&quot; style=&quot;width: 100% ; height: 100% ; border-collapse: collapse&quot;&gt;&lt;tbody&gt;&lt;tr style=&quot;background-color: #a7c942 ; color: #ffffff ; border: 1px solid #98bf21&quot;&gt;&lt;th align=&quot;left&quot;&gt;C_PAYS&lt;/th&gt;&lt;th align=&quot;left&quot;&gt;C_RISK&lt;/th&gt;&lt;th align=&quot;left&quot;&gt;C_DATE&lt;/th&gt;&lt;/tr&gt;&lt;tr style=&quot;border: 1px solid #98bf21&quot;&gt;&lt;td&gt;Value 1&lt;/td&gt;&lt;td&gt;Value 2&lt;/td&gt;&lt;td&gt;Value 3&lt;/td&gt;&lt;/tr&gt;&lt;tr style=&quot;background-color: #eaf2d3 ; border: 1px solid #98bf21&quot;&gt;&lt;td&gt;Value 4&lt;/td&gt;&lt;td&gt;Value 5&lt;/td&gt;&lt;td&gt;Value 6&lt;/td&gt;&lt;/tr&gt;&lt;tr style=&quot;border: 1px solid #98bf21&quot;&gt;&lt;td&gt;Value 7&lt;/td&gt;&lt;td&gt;Value 8&lt;/td&gt;&lt;td&gt;Value 9&lt;/td&gt;&lt;/tr&gt;&lt;tr style=&quot;background-color: #eaf2d3 ; border: 1px solid #98bf21&quot;&gt;&lt;td&gt;Value 10&lt;/td&gt;&lt;td&gt;Value 11&lt;/td&gt;&lt;td&gt;Value 12&lt;/td&gt;&lt;/tr&gt;&lt;/tbody&gt;&lt;/table&gt;" style="text;html=1;strokeColor=#b85450;fillColor=#f8cecc;overflow=fill;rounded=0;" vertex="1" parent="1">
          <mxGeometry x="532.5" y="400" width="257.5" height="50" as="geometry" />
        </mxCell>
        <mxCell id="_7CR2dzUpwFFZfgv5Ka1-3" style="edgeStyle=orthogonalEdgeStyle;rounded=0;orthogonalLoop=1;jettySize=auto;html=1;exitX=0.5;exitY=1;exitDx=0;exitDy=0;" edge="1" parent="1" source="_7CR2dzUpwFFZfgv5Ka1-1" target="_7CR2dzUpwFFZfgv5Ka1-1">
          <mxGeometry relative="1" as="geometry" />
        </mxCell>
        <mxCell id="_7CR2dzUpwFFZfgv5Ka1-4" value="" style="shape=flexArrow;endArrow=classic;startArrow=classic;html=1;rounded=0;entryX=1.008;entryY=0.583;entryDx=0;entryDy=0;entryPerimeter=0;" edge="1" parent="1" source="_7CR2dzUpwFFZfgv5Ka1-1" target="7OSYwrfunuPEWSIrKeCt-4">
          <mxGeometry width="100" height="100" relative="1" as="geometry">
            <mxPoint x="580" y="269" as="sourcePoint" />
            <mxPoint x="620" y="170" as="targetPoint" />
          </mxGeometry>
        </mxCell>
        <mxCell id="_7CR2dzUpwFFZfgv5Ka1-8" value="&lt;h1&gt;Extraction&lt;/h1&gt;&lt;div&gt;&lt;br&gt;&lt;/div&gt;" style="text;html=1;spacing=5;spacingTop=-20;whiteSpace=wrap;overflow=hidden;rounded=0;fillColor=#d5e8d4;strokeColor=#82b366;" vertex="1" parent="1">
          <mxGeometry x="600" y="70" width="140" height="50" as="geometry" />
        </mxCell>
        <mxCell id="_7CR2dzUpwFFZfgv5Ka1-9" value="&lt;h1&gt;Transformation&lt;/h1&gt;&lt;div&gt;Read all files of extract job in input folder, Add new column using pattern filename to get date and source of extraction (C_SOURCE, DT_SOURCE) export to csv in data folder&lt;/div&gt;&lt;div&gt;&lt;br&gt;&lt;/div&gt;&lt;div&gt;PAYS | C_RISK | C_DATE | C_SOURCE | DT_SOURCE&lt;/div&gt;&lt;div&gt;&amp;nbsp;&lt;/div&gt;" style="text;html=1;strokeColor=#b85450;fillColor=#f8cecc;spacing=5;spacingTop=-20;whiteSpace=wrap;overflow=hidden;rounded=0;" vertex="1" parent="1">
          <mxGeometry x="480" y="589.05" width="310" height="140.95" as="geometry" />
        </mxCell>
        <mxCell id="_7CR2dzUpwFFZfgv5Ka1-12" value="Write to csv in folder input with pattern&amp;nbsp;&lt;br&gt;source_date.csv&lt;br&gt;date: date of extraction in format yyyymmdd" style="text;html=1;strokeColor=#82b366;fillColor=#d5e8d4;align=center;verticalAlign=middle;whiteSpace=wrap;rounded=0;" vertex="1" parent="1">
          <mxGeometry x="532.5" y="450" width="257.5" height="80" as="geometry" />
        </mxCell>
        <mxCell id="_7CR2dzUpwFFZfgv5Ka1-27" value="" style="shape=flexArrow;endArrow=classic;startArrow=classic;html=1;rounded=0;entryX=1.008;entryY=0.583;entryDx=0;entryDy=0;entryPerimeter=0;" edge="1" parent="1" source="_7CR2dzUpwFFZfgv5Ka1-2">
          <mxGeometry width="100" height="100" relative="1" as="geometry">
            <mxPoint x="574.04" y="399.9955699880363" as="sourcePoint" />
            <mxPoint x="410.00000000000006" y="456.0400000000001" as="targetPoint" />
          </mxGeometry>
        </mxCell>
        <mxCell id="_7CR2dzUpwFFZfgv5Ka1-28" value="&lt;h1&gt;Load&lt;/h1&gt;&lt;div&gt;&lt;span&gt;&amp;nbsp;Get file of transformation job in folder data and create Api restfull&amp;nbsp; to allow acces of data from web&lt;/span&gt;&lt;/div&gt;&lt;div&gt;&lt;span&gt;&lt;br&gt;&lt;/span&gt;&lt;/div&gt;" style="text;html=1;spacing=5;spacingTop=-20;whiteSpace=wrap;overflow=hidden;rounded=0;fillColor=#e1d5e7;strokeColor=#9673a6;" vertex="1" parent="1">
          <mxGeometry x="490" y="790" width="275" height="100" as="geometry" />
        </mxCell>
        <mxCell id="_7CR2dzUpwFFZfgv5Ka1-30" value="&lt;h1 style=&quot;text-align: left&quot;&gt;&lt;br&gt;&lt;/h1&gt;&lt;h1 style=&quot;text-align: left&quot;&gt;&lt;br&gt;&lt;/h1&gt;&lt;h1 style=&quot;text-align: left&quot;&gt;Load&lt;/h1&gt;&lt;div style=&quot;text-align: left&quot;&gt;&amp;nbsp;&lt;/div&gt;" style="ellipse;whiteSpace=wrap;html=1;aspect=fixed;fillColor=#e1d5e7;strokeColor=#9673a6;" vertex="1" parent="1">
          <mxGeometry x="275" y="810" width="195" height="195" as="geometry" />
        </mxCell>
        <mxCell id="_7CR2dzUpwFFZfgv5Ka1-31" value="" style="shape=image;verticalLabelPosition=bottom;labelBackgroundColor=#ffffff;verticalAlign=top;aspect=fixed;imageAspect=0;image=data:image/png,iVBORw0KGgoAAAANSUhEUgAAAOEAAADhCAMAAAAJbSJIAAAAhFBMVEX///8zP0g1QUobLDfV19iprrIvO0UoNkDw8fFRW2OJkJZYYmowPUb8/Pzb3d48SFFnb3a6vcAjMjxveH7Aw8Z9hYzn6Onx8vOEi5D39/jo6uvMz9FDTlZudn1pcXfO0dOfpKiVm58RJTJJU1tfZ26TmZ2ytrmnrK9UXWSAhot3f4QFHy119bLfAAALaklEQVR4nO2dC3eqvBKGlWICEkCRgggKHBCV7///v5MLNwFbKljsXvOutbvrpZKnSSYzkwldLEAgEAgEAoFAIBAIBAKBQCAQCAQCgUAgEAgEAoFAIBAIBAKBQCAQCAQC9Wq7+Yxkfe5WvEaKQr/oJwvjnTN3W14hz9dOxkI3ErJE9Jt/T15sYpLbWb5cLlF+oM+4czdpYskfhLKZS8QIk4vj2vE/NlTdI2NjlAzRvK1V6+bN3ahpZRd0XITJXP1bJjVCy5aQ9u+MU8VwfZO0AIkU/TPD1IuSayAAEV5iLAjxau52jZDOVD80NpgIQLKxD/JnQRjO18DnJfOvfooQOddDUNaKOYg2bKn39vyhFc3TxnHK+NeVSQg6ch+NY8oaLibhhT/2+ZBFmm38vYloy4zrYhbd5dkX5rkcVnnCAaWMj90w4Z2IpNSet7k/l7sPzs7BPrEZZ+5teZXgM+/KQyTxabhmwHomFdbU/GvGxj0jZB7zpLAqSRpQA7NmPujC4U+SZKXQjk2LMUuSP9aHeiSRJaFGplzw2HfE5HNTEcYGBbdofS0XDusqz93mn0mPcdttoRwpc1zc2Cyol5IkAHF6Wa/+mqXxPjuIJGDrg7tfdjwakwaLUzdAd/wsWr9E+4jHtI5Utp9UU41heGc2fu8g8WVqvIUnRztVwi/S1WfXyHDZQUnphkrcXCo7RIKk2ZF4PfEI1Y1Iw7g9VKZTGi48T9kJQum08ldH0Z8k9WW6sMvaaWvnYjIiwqwOntaOenYudaKXaQmVLM4FFMqZcXHywmRK5pEO4ZD+c27sCTPNNerzBNtJAbfpK/EYoewHluhBEojesYMyohdPeLoX00f4LDu2hk7bKUept9VeNz5LQruceUgTmTSj9LdJsBVWU9ljhCzawbodTboS6pUT8VLCqssS0Xo5qbIyBaHu31J1x77XpzUzzq4GpGYcvUJa6CdWYclQzFeIuHDeiLkr06O6qxyUSdnEx8ZS5UctzUR9hZJc9uxoLwYqWcaKrhRXJars1R3G+1LPTvn64k+XLzXU0opK17NtKK4yuVzF5W2PivXQQgmyil9r1G0QoQuo9YFp1+qTuDVRtfge/Sk+7wsdzHq0FP+bbIRSDs+ohqdtiZfwTZ/EcfM25YQ/vny3wEs6i67EkqKKd4iTvMwdnkvPZz+NvTECVJi4lwdj7rlrswlb2R17R4OqvehFpVxFltE0ly3XKbx+eYbZbkUQ3NdG68UhYqaAmJG78JwwLt8kZdNcNi79/Um9pF4ZG0yppDJziIKA76QZpY0N1tF6dyVTE64LD1j9hfSko1nLmx2r/ILJWQ43lmZ4UenxU/o6A0AfTrSNWBAi7TcyBsZxfVh44ZVGg+aFzgonpivC6qHPn2bU1iiXNI3H2JxfJRQLnH5CwsKIJd449mQ3RC+a+TbbSAiPCjR+l1CIuonNPJrdXURKRLr282DxPOJqcxAal+hi1wPPXT8appWs2/M7bXMQtuRV9vyhiPl83u0NCOXN99Ebuj5tWOcndM/f8tGZ+JcJt8mALtSez2rMSKjb63i1vQxIoZCT/7xPOSOhsUGSGbQ38FGxQtwBjmncjIRZ0M50Mz71ds6De0YpHnOZ+Qi9nmAKaSKzuLqfm6MixfkInbzjraFjubCHaqMXxf7+s5qP0EjbzhpS60ZkUiPKUMfkV+YjDK8dwrhOsHkNfhocjxim8xH6bYebmM1ESnM/laixLR+evM6M8/BG46K7er2gGYVnVvMlEqT5k4mk+Qj1gx3lAXpEeGkSsqSHlT53nVm9Ns81mjZzmTU8l46lRepzF5nbL101uors6rnmBO3VEm2eu8JwQsW3bTvsGjU3tFvyjcOdG+nxd/THsHKzq1BlM71dJ+7HtyfwFj8hzKSPj4+km5KTtY+WkLrfOg1GR6VPWlmv8+yojb4iJOJpYd3Zt/koYfRiQuFkBd0aCePU+XUTjE92vbYdNoguBdteQuWuswg+2rIcrjrOAHvtyXznYMKQR+Io7wxTGiKw69ebhbxTkHmuEL8idFowGAWq2Qou+Gdj9clVfyihvuKVEkTrrEqckKinVGiTBrzqgZC43E76gtBYd9xv0o43SHLb55v02RT4UEJlXZSKdLKznBCfnVAW8lfn1CRNX+sxYXhq4/SMTik7HBzj6WLTgYS6X2wJobxtEzmhVf+GdU+R+VYEuobfEMrao2Rwc9zexu0ZDST02P5tELBduHZLBeF9KaizZojSWfma8DKgiIdIzzqkPyN0bphGbzeJbcO1ign6CKmBJfWHPiQ0Hma7a7U/+ccaRqizjAOOWUiH2kmTXkJ9y7bOitT943loW9/w0U8eu/c+jNBjsQzO2A40CVrp517ChcE2mBKxyn9hS4X9Qp18TS10HMU3lJCt6igNF1vaELy/nxj9hIcT20ITC8YXhO6Gjn5y3efBQ5vzMXLvdhjhymSD1F04nPQ+edlP6BzpL8MUVdxfrfhhYgU333WzzaNuROq480+DCL1PCiHRJuosamvlFB734dI8f0uob9cZf5NxNu881Ho3mIzb7h5EyFIqwsL4EpsZd9b0QR+mqJqyXxEudLd4/pBXhhURST2VwTHWxu12DyJkTjfmaSKDOspEvfPc+glZOpAkYgp9SVjJjavirNPFNxyRx0FdF+OHGkTIGITl11n6hNx5Gb2EHiu1QqL4eSChsi/LMXODv5VVp+BgNbaWbwghP4hUVBCGCXtzcyL2EoZsv4UUZVbDCJ1jQVgelfGij480HF3mM4Rwj+vwm5UqF8dACvUQippcYoqTWkMJCye1rs7yttkEFYoDCA9pNUjZMGVtb6a9Cs/bcws5RiZO/pDyzgEDR2kcSOz8L0qnTRkNIGQem5SXBk3WWO80Fn1OiNJ9odspFVtHJCn9rWGEC9c+77TEDEZVz3T1PaHO/G0zKtun8J+I6tdFjI+qsxUiyCdL1S5/ZCAhHZaOv82yiQ84f09osDl1rRcIvu2X1s0VhPciSLrVHvNgwpfoW0L9QqNCqVHPEqbleSWhdh9ibEnaetvoiTcndNnRD+qolYbEM/YmC26rySLm4aY+MhVv7fAuYfrmhDKzpFK6zwt95prErGm1EAtbGumNou4Wy3sTetXRwFLiUVLZkXaepqv3JnR2/YEbyctO7PdLm3qSUPeERv5mviHUbZ51J/e6+4FXEerX//7H9N9pXCrqG8IDqxtEaX6nncqsaeGSvY6wOMuDP19KyDclrExxGjo4rJiwWkBeRnj8DUIvS1hCqR2C+hINjbRiSf/bhArb5eqeWBUBfCQc/789SvkhQauzGeNFVh39/WlCHql3BymlwnUdz58mdJmdwXE3DPUYlSle+NOEIUtfoJ5Ul84OniOVv/KXCXX+4qkvXnMQP7PMz0v8YcJDQsNZ3FtT5p5YpLvjCcaUfvvx1T0QDvQdePmOhOHmdDpteo2sntGXTjw1bKzp2zZfbS4oe/ZB9hsSugZTf9bEddhr/Mwy/+6rpJjO3uH8NG32S17bjALCoQLC+QSEQwWE8wkIhwoI5xMQDhUQzqfJc21vd6f3iQlJ8Orb7/xYXnGDLrwfV28SFWfh0fQ3KhwpuSiKGnuDwfJG2ug4shR3chWja3QJ7aG8Jax0ea+bvPvVsaCR80ffFZ+DrpPeyG+kdL+6f1U6tjZjWxU9XiP5TRh1Y1XdydGKx44ttz7UE2zOl9U7KN4FZZtQz0mrn2rbPOUovYfqG7qhCf5+gBc3jk2/nUYu90LO7X0R00lcLV3evSciWW5+mih/hBjegm5t2uxC0s6eyrjrxmXT+SMhs+t6nvKPd7lZ56zr3DLjacMd15DfTK3j0iAQCAQCgUAgEAgEAoFAIBAIBAKBQCAQCAQCgUAgEAgEAoFAoOn0f1VP9hu4Eb9+AAAAAElFTkSuQmCC;" vertex="1" parent="1">
          <mxGeometry x="340" y="840" width="65" height="65" as="geometry" />
        </mxCell>
        <mxCell id="_7CR2dzUpwFFZfgv5Ka1-32" value="" style="shape=image;verticalLabelPosition=bottom;labelBackgroundColor=#ffffff;verticalAlign=top;aspect=fixed;imageAspect=0;image=data:image/png,iVBORw0KGgoAAAANSUhEUgAAAYoAAAEGCAYAAAB7DNKzAAAgAElEQVR4nO29b2xc1Z3//3ZIab1VSyQUdtx1CKONRDcopDLdxGMpVbCaAlJZYObrLJkhaVFU9rebqg8St1BlEiF7XKB18qAq3S1VBCSZcYplUzYPoMpiIiLNOGyxCCiorKgGx+56FMRudlfBFJLM78H9d86955x77sy988f+vKQIPHfunXPuOfece/69Tsebb75ZRZtRrVZRrVbx2WefobOzE11dXfjiF7+IlStXNjtoBEFIuHLlCi5fvoz//M//xCeffILPfe5z6OjoQEdHR7ODRvjQdiWrVUlcuXIFn//85/HVr3612UEiCEKDlStX4oYbbsANN9yAd999F59++qn9ckeVRWuzotkBCIJVSVitia985SvNDhJBEDXwla98BZ999hn3TBOtS1tVFBZXr17FZ599hi996UvNDgpBEDXwF3/xF/jss89w9erVZgeF0KBtKgrrrePatWuoVqu4evUqrrvuumYHiyCIGrj++utx9epV7pmmVkXr0jYVhYVVSVy5cqXZQSEIog6uXLliVxZEa9OWFQX7X4Ig2hN6ltuHtqoorAx17do1XLt2rcmhIQiiHtjnmCqL1qatKgqLejLV8ePH0dXVhc7OTs+/H/3oRyGGkiCIqCkUCs0OwrIglHUU//d//4fHH38cp0+f1vr+1q1b8fjjj9c1a6nWyiKXy2F6ehpr167lPu/s7MR///d/45FHHsEzzzxTc7gIgtAjjAHsQ4cOIZ1OhxQiQkYoLYp9+/ZpVxIAcPr0aTz++OM1/Va9GWt2dtZTSVj8+te/RrVaxSOPPFLXbxAEoQ91O7U+oVQUb775ZuBzglQsjSS8yuIsRjs7MXqW+agyju12V9d2jFesj7cLusJGcdZ9Sfb87eOoiH5W5ztWCEc70Tnq+RVBWF3fOzsq/hwVjG/3xk99DnNcGJazGBXdC4IgGkZbjlFExaVLlwDUX1mcHe1EZ+cZYJj/vHIG2Le4iMXFRSyWBzAeNwrA2MALxmfmv/LRe3Hv0Yewmb8qRuPjGCgb3zm9aRd+MO6uBnS+A7vQPuMOIMvsLE4On3bCNWiGpjKO7VuB04uLWFws4+gbW+3K8OxoHOMDZeP7pzdh1w/MikpxjnlRjB96A0cf4mMchLOjrkqZCJVz587h2LFjwmPHjh3DuXPnGhwiopGE5nqyWhV33HGHVgvjjjvuCOunQ2H//v3o6uryfF7LeMXmwUUsDgJnRw/gDPN5bGAAMfuPm7EJs4Kzz+L4rk3YtxhzfXwGB4b3wfp480NHgR+cQYW9ps53jABi0QggDrABdHGvoIuucmYcOPpzsxKLYWDfMDrPnMXgZuDMgWEn3JsfwlH8AGcqA9giPceqfM5gfNM+vBDz/BzRIrz99tv2i9POnTvtz48dO2aP623cuLFZwSMihloUJtlslnurX1xcjPYHKxfwxr1r4SmKz57BG57WBFC58AZfcMduxqaTs1xVo/MdFexbeeXCGzi5K+7pBpudPYlNNzMl+tq1uPeNC6h44hPDzZtOYnZWcY4V7jPj2LTFiTHbFbd9/AIbQowy3WHbzdbS2dFObD0AHNhqdbexXWCK7jVCm507d+KZZ57BI488Yrcs2EqCrTyIpUfb2WOXBhWM/2AXNu1b5N/0zS6YgZ8PNilcDrGBF7A4YPx/ZXw74tvHUX5hIIJfMlpQW6x6+ewo4rs24fTiC9hs/TY2wRjR2ozBxUUMmueNdh7H2YFBbB5cxGl04syWRVg9ZAMvLMIIbQXj23+A8coLGKAWS11YlcEjjzyCYrGI5557riGVRKFQwKFDh6THZb0T+/btoxlRIUEVRaOpjGO7OY4w6C64mtwFs3lw0dOSAYDYwD4M7zqj3TIJhNmCsqrGyoU3MHz6BTsc1m9bVMa3I77rpPnXvThaATaL7tfZUXRuPWD/ObwPAFUUdbNz5067kvjud7/bkJZEOp2WFvi6Xd1EfVDXUyOpjGP7D4CfL4rfbt1dMCyxmzfh5CxTVAu6rnS+Uy9r196LNy4wA+Szszi56WbEPN1cFVx4416sXas4x2pBbYkxh05CRmV8O+Kz+8yuwTKO3iv54tlRdB5ai7LZhXhaMWZPBOPYsWN2JfHcc89JB7iJpQVVFA3k7PFxDPx8QPJiW8GZccA9fmyPG2zeguEDh+wpp2eP7wIGtiAW9Duq8Em+Uxk/hAPDW7AZQGzLALDruDlmUcH4oQMY3rIZwGZsGT6AQ86PYxcGsCWmOMdsQbGV5uYtwzhwyJnWWxk/BKtdMDt70hmDqZzBuKROqVx4A9h0s3mfz+LMAfH3iGCwYxL//M//7BmzIJYuVFE0jAouvHESu+L8egmnYJ7F7MlNuFnaPbIZg6c32edvxWm84GmW6HxHD2OKr/EvPj6AstX5HxvAz4++ga2dnejsNKbDWoc2D57GJmsAfCtw+gWzUpScI2xBbR7E6U27EDd/+wcYsCfxbn7oKGBd/wez2MS0KDZvGbYHszGwD8MHtprh905TJoIjGrgWDXATS5OOMPbMZvsJg0yPDdK3aHnrr1y5gk8//RT/+7//i23btgUOa2dnp/aMpiDfJYJyFqPbL+ChF2QtLKKVOHfuHN5++23hmMSxY8dw++23B54ee+rUKXz5y1/G9ddfj5UrV2LFihWBt0SlMYrGEMpg9h133GG/Wejwq1/9Clu3bg3jp4m2ZTMGX6h9gR3RWDZu3CitCGhq7NInlIri0KFDePzxx+1pan6L6SwpYDNYtWqV0vdkofMdgiCay759+5odhGVBKBXFl770JeU851bipz/9Ke666y7Mzqone65atQo//elPGxQqgiBqgdZJNIZlt45i586d1FQmCIIIAM16IgiCIJRQRUEQBEEooYqCIAiCUNI2FQW7C1a1WsV1113XxNAQBFEv1113nee5JlqTtqgorAxk7bF75coVXH/99U0OFUEQ9XD99dfjypUr3N7ZVFm0JivD2OC8EVy7dg1Xr17Fp59+ij//+c/4m7/5m2YHiSCIOojH4/jDH/6AlStX2iuyV6xY0Rbl0XJj5aeffoqrV6+ilSsMNmwrV67E+vXrhbvREQTRPvzVX/0VVqxYgT/96U/485//DADo6OgIrPEgoqdjcXGxNWsHoq1o1ZcMgiDqZ9ktuCPCRdS3TJUGQSwtqKIgasI9wcD9/wRBLB2ooiBqxqoYrl27RjNXCGIJQxUFERirUrAqiRUrVuDzn/88rrvuOhqIJIglCFUURE1YlcTKlSvR2dnZ7OAQBBEhbbHgjmgd3F1MtPCRIJY+VFEQNWFVGKRSIYilD1UURE3QgDVBLB+ooiACQ7ObCGJ5QRUFQRAEoaShs56OHTvWdtuQXrp0CatWrWp2MKTMzs7i6aefxuuvv45z584BANauXYu/+7u/w549e7B27VoAQCwWQ6VSaWZQAzE3N4dz587hvffew9zcHABgzZo1uPXWW7Fx40asWbOmySEkiOVDQ1oUly5dQm9vL15//fVG/FyoXL58GX/84x9x9erVZgfFww9/+EN861vfQrVaxa9+9SssLi5icXERzzzzDL785S/jW9/6Fn70ox8BAP7nf/6nyaHV59VXX8WhQ4dw+fJlfPvb38ZPfvIT/OQnP8G3v/1tXL58Gb/85S/x6quvNjuYBLFsiFwKeOnSJdx9993YsGEDfv3rX0f5U5Hxpz/9CZ988gluueWWlpnls3nzZtx+++3Ke3rp0iXcddddWLVqFV5//XUsLi7W/bvW+glL+x52a+uXv/wlPv74Yzz88MO48cYbhd/56KOP8Oyzz+KLX/wi/vEf/zHU3ycIwkukLYpz587h7rvvxre//e22rSQAQ4f8pS99CR988AE+++yzZgcHP/zhD3Hvvff63tNVq1bhd7/7HW644YYGhaw+Xn31VXz88ccYHByUVhIAcOONN2JwcBCXL1+OoGUxjSc7nsQ091kFJ+7vsBXYHfefgN2JN/2k8zn3z30N9vrO954Uf8n41RP3i39TfgLuV37vIl4bfRSPPsr8e/689Pjoaxf5088/z5z7PM4rru051/7aaxgdfQ3io+fx/KOjkJ1KNI/IKgqrktizZw+y2WxUP9MwbrrpJtx444344x//iE8++aRp4ZidncW//uu/4vvf/77ye7FYDJ2dnejq6sLJkydbvrKYm5vDyZMn8fDDD3uO/eY3v8Evf/lLz+cPP/ww/u3f/s0ew6gXo2BO4MfuA9PP4YPHHG1JqXcHuqwSvvcxTmlSrVZRegK4b+y76PX+Ak7cn8D02ILx3YUxTCfuxwlRyT79JLp29KIk+k3h1zvQ0bUDLylj+CEufLgad+97Ck89Zf77zm320fPPH8Irq3eZx3Zh9SuHYNcjF1/D6NEP7XP33f0hjjIFvvJchvMvvwLccRtuUoZTB6pUGkkkFYVVSfz0pz9tu8FrFatWrUIsFsMHH3zQtMoil8th586dvl0+lUrFHrNYXFxs+YHst956C4lEQtiS6OvrQ19fn+fzG2+8EV/72tfw1ltv1f37lRP3o+vEg1hYGMN97oO9j+ExptTv/e4Y7vvxaXGLoXICT/74CTz2YExw7DROvMQciz2Ix554CSdOe9Nm+vSPucpG9ZvTT3YggRKqpSd84wmsxk3CUvo8fv/uatx9j1Vx3IZ77l6Nd39vlPYXz7+JD9ffgzvNc2+68x6s//BNnL/ofy7/G+txz531VxNEYwl91tOxY8eQy+XwyiuvYOPGjWFfvumsWrUKn/vc53DhwgXEYjF8+ctfbujvz87O+rYm2pH33nsP9957r/DYxx9/LPVJfe1rX8PJkyel5+oSe/C3qD4IoHLC/8sffICX7rsF/yI4NP3cDmBsQdCaACqnT+ClJx7Db5nPerc+gZeePI3Kgw/CqVqmcfrH9+HBBaayiW3Fg/d14fT0Y+h1Xbz3sSqqADB92vOb559/FEexy2g5XLyID2VxOv97vLv6DtzDlOE33XYHVr/ye5zHalx880Osv+c25oTb8PX1R/Hy+Yu480PVubfhNvY31n8d37G/dRGvjR7CK2agVt99N1bzgcLzjx7Fu9afq+/GvsE7cdPF1zB66BV8CODdQ4/iFetz2fdlcSa0Cb2iyOVyuHDhAnrduVmDG264oeFvvn/4wx9qntFUqVQaXlGcOXOm5gr41ltvxXvvvRdyiMJhfn5eOuX1P/7jPwAY4XezZs0azM/PRxo2ngpOPPlj3PfgAjxtBqs1URW0JlqGd3H00UeN/21oQXoRr738Ltbf8x3n79FDePOOfXjKbGEYldpq3Gydcv73wK6n8NRtgFVpvHz+Tnzntjsx+NRNeP7Rl3HzvkG7lSP/fkMiuKQJvaLIZrPI5XL49a9/jW984xthXz50vvrVrwY+5/Lly/jTn/6EWKw5BUItazsuXbqECxcuRBSi5UIFJ+7vwo7eEqqCrqXK6RPA2L8IWxPN4rbvPIWnrD9uuhODT91pHzv//KM4NIrGVBYXz+NN3I1dtzF/f8h3Q932nV1Y/+jLbOCZ1sdt+Pp64OWLF4HbJKEN+n1Cm9Arip07d+L222/HXXfdhZ/97GdLaowCMArcSqWCW265BV/4whca/vu333473n777cCV8Ntvv43bb789olDVT3d3N+bm5oStBhVzc3Po7u6OKFQMlRO4v2sHektVVIU1QQWnTwAP/ksNLw+9t3hbJ0Luwy23BL+8DKtgPn9RUVGsvhmrAcksJWC1eMCDOxcwxjhwxy7ndz68gA+Z42L4rinzkiF+n9AlksHsjRs34ne/+x1++MMf4tixY1H8RFNodiUBAN/4xjdqWrh48uTJlm7h3XrrrTUNSr/11luBK5fAVE7g/q4P8Fi1yg1q8985jRN4EFsVJX7sll5g+gNu+ur06R/jPk/pfwtuue8lfPCB6/ov9eKW0Bux5uD26pux+sML3BjGxfNv4sPVN+Em3ISbVgMfXmSrC2MA++bVfuca3zUmOzGViuAcfgzFKPQv3OPM0Nq1XhWPoN8nghDZ9NiNGzfi7Nmz+MUvfoGRkZGofqZhVCoVfPTRR/jrv/7rplUSAPD9738fv/jFL3Dp0iXtc2ZnZ3H8+PGWHgS3Zi999NFH2ud89NFHeOutt4QzosLEGKAWTXd1qJw+gZdELYPpJ501Fb3fxRh24P+z5sNWTuDJH9+HB7fGYK3VuP9EBUAMDz72BH6ccNZiTD+3Ay89sdUIA3tNH84/z6yVOP8aN530/PNH8e76rxuDzTfdiXvWv4uj9pzW83j5lQ+x/utGX9Ft99wNvHLUPv/iay/j3dV3GL06Pucag9jOjCkAwE03YTXexctMgM6//ApTURhTeW+2mxzn8ft3oSDo94kgROp6Wrt2LX73u9/hrrvuwuzsLJ555pkofy4yWmll9tq1a7Fz5078wz/8A37zm99onfO9730PDz30kO19akXWrFmDb37zm3juueewb98+7phsRtOzzz6Lb37zm8rFeWHx0o4udOzgP3ui5LQwPvjgJTyx9bfeEzliePC3JXzQYV3rPowt/BaimbTofQwLY/ejy9pa9okSqtLmjC4X8MqhR/GK9ef6Xdw6itu+sw93jx6CNda9ftdTzkDwTXdicNcFPGqd7xoIV517/vfvYv3XndED8wx856ldeP7RQ3j0FeucXVj/7sv28XvufhmH7PCux/r1/Pn2cTMs6u8T9RC5wgNwVBIbN25su8qilSoJlu3bt+PChQt45ZVXpAPbs7OzeOSRR3DDDTfghRdeCOV3G6HwWFxcxHe/+12lwuO5555DZ2cn/umf/inU3ydC5uJrGD10Afc89R3Q5KP25bpsNvt41D/yhS98Ad/73vdw6dKltltbce3aNXzlK1/BihWtZWTftm2bXRFcvHgRn3zyCf7yL/8Sn3zyCf793/8dx48fxyOPPIJt27bhZz/7WajdZewq5LC74f72b/8Wi4uLOH78OP7rv/4Ln/vc59DZ2YnPPvsM5XIZr776KiYnJ9HX14e///u/D/W3ifC5+MYEzq37f7g//sVmB4Wog4a0KIjoOHfuHI4fP47XX38db7/9NgBjZtQ3vvENPPTQQ6FXzFG3KCzm5ubw1ltv4b333rPXSXR3d+PWW29FX19fQ7qbCIIwoIqCCESjKgqCIFqH1upPIQiCIFoOqiiIwHSYM3Gs/xIEsbShioKoCaokCGL5QBUFURPWhjqtuEUsQRDhQhUFEQirgrD+/9NPP21yiAiCiBqqKIia6OjowIoVK3DlyhVcvnwZV65cQbVKE+gIYikSqcKDWJqw4xMrVqzAtWvX8PHHH9sVBVUYBLG0oIqCqBmrwrBWrVurtQmCWFpQRUHUBNuq6OjoQLVatT+jyoIglhZUURB1IZomS1NnCWJpsXJ6WsdqTxAEQSxXOqrUT0AQBEEooOmxBEEQhBKqKAiCIAglVFEQBEEQSqiiIAiCIJRQRUEQBEEooYqCIAiCUEIVBUEQBKGEKgqCIAhCCVUUBEEQhBKqKAiCIAglVFEQBEEQSqiiIAiCIJRQRUEQBEEooYqCIAiCUEIVBUEQBKEkUEVRGUuho6MDHcMl58P5AlIdHRiZto6PoMR+n/0uQTA4+aWCwvaOkPNKCSMdHejoSKEwz3w63IGO7QVUzOOpsYre1YY7jLxv5nX3Md3rBMX4XeeZ0j6nhjj6YT//7jKA/Z3pEc89bymmRyRxcKjlnquIJJ8ryt0o0K8o5gvYk+5BsVpF9UDC+bw7jh72ewNxxEMLHiHGyHDuAqvdiMW5nIPkuvByTmm4DzOFBVSrE0h3O5/H1yW57/XEY9zfVmHovreJA1VUqwvID4QWxMjwi2NdDBVRdZcBiCPO3ZcexLvRmvTuR7VaxUIh6f/dQJQwIqkgI8nnPuUu+2LjqZjMSqZD8CLFVaRM5ROs60laCSQR7/beEILwZSCOOGKIbwj/0tICckMcMU/hBgAVTL3Yg2Iph+yp1mgJGxXUfiT8v8ojjWN09MRjQHccYRfBjabme64iknwuKXenR9AHs0KvFpE72Me8+JQwsmYCqbmqcXwuhYk1VoVQwkgCRmOgWkVxKIs+q5Kp6jKXryYH8tUF7ROq1YVCsoqhonM+UIV5jYVCspos5Ks5oAqgCuSqRebc4pD1OXtsoZofSFbzc64fKuWqGCoav8eFcaGaH0A1WVjgw2D+sz83f0/6t3l9Nky5kuveKK7rjYd1juzvYjWHXDVfSHquucB85vxj7oksrHP5ahL8vfPeLxXGvbR/kz2vlOPCY90bLo0H8tWiGXb2/qgpGucOFf2/6j5zyJVGOszlq8mhYtW6/95fNe6B+7rGbxXFedmVN9j7pnwG2PMEacTnq4BxNdMr6P3hnucAuMPq5FfzeS7J4sreU9czoHrOa42Lzz1353Pr97zx85ZnzYQty9zxtsoTYV4o5ez7EKDrqYzJDXHU1IidLyBl1WIvpO1rTKYzQMmpvUbNvtTScAdTI1axUJhB3/YCKoghvmES5XnzmtsLqAColGeQXBdHbMcgcuMTmLKaUvNTmBjPYXBHjA+DWdP2pLv0u28O9mFqm3luKYfsYeO3jetm0FOq2uGd2BHziYcOWWReTGGhWkV1Lg+kj6AEILZjwu4Cydm/yXevCMPancbg0CQmzli/XsHUi5PI7U1rpGkFhe1dyGxw4mKn4/QIOpi3kOpcHjMJpzk7mZ5AfK6I3HgGfe8PYqGQxOT7Zb17XjMVlN9JBu7+qJyZQM+2BIAE+oeymArQtZdNjCI+583L6E5jourkjeKGDI4w15U9A/Z5pZzw94y3XuaeH9bNV42lMpZC3zt5Ix/b+ZbNr5PIHAaeto7Duj8VFLY797RaXUDqxT0ozEP9nNeD8p5XUDg8g/yc9zk30qKIHJLM8ZBbJDVTwtTBJFJbjLCW35+0u75Kwx3oen8QxSFgpuzNPaVTWSQf6EcMWl1P5qDgqX5Xv6QmB/vQsaaMQXdhBgBDRezvNf43vs4qQIyHPP+w81uxLSkkx8som9+bKVeAeaBnQxlT80bkjW6GBHYXYBeGlTMTQGG3kWDzZUwODTJhSKBfcoOEDOSx2wwrevfbBWXlzAQmmXg4qOPhTxL5w2Zh3B1HD2aMCrKOsCYezgMvTpkV3BQmwHxPhfkgFgXpXynPIGndYwDo7kdqYNIJq33P+XuhRwL7Pf3haowxhj3AYUF+U1LCkTTsyiWxLVj3U7LwtP17iW05pjK0BtWNf30HXXlO+Az4ww0sr8lgUjtfwe6n9+bZxuB+5pyXlRjSL5jhmp/CxPgkMmuse9eFzLiVrxTPeWQYL6mZNdFNXAifCgrb+zDD5E2DMgrbOzC6bkH6bFkV/NNmZahRUZgP67ap2kbrh4oB36TVWP1xpVNl9D8cR/lMiXt7jG1JmW/fFUy9CLsmJWAU4uYbW+XMBGC+LSwljBbX08DegDNvpqeQBVMwJbLAwam6Z5KUhvuQHXJaYsWhOi8ImBNL4Ly9zuVbdlzAeDnKoMsq7DcU7TdxXwaslojzz6rcmvGcW624p7FHOWuqNTB6ASYeWODud3xdEpPpPpT3Wi2iCsrv8ON5lbEUul5MYYHp/dHveuqOI/lOuabCPrZjAsUNGXRp3Viz5n7W+W7p2Qwmh/qNN4buOPD+EUyhH4nuOPDiFMrsLIvuNAaHspgaPoLMBqYF0R1H8uCoU3jMFzDKNMkAOG9z0yPoO6gZty0p/rq68QAAu5VQQWFvBpN6P2leO0BriDkvvTeH7KkRHEn3CJrq5vQ991S77n6kBphuEfaK8R5Mmt1iAIDpI8iM59Afytuq+TYe+IFkuih1f+lUFsnCAlcoFQN2PxlUUDicRW5bAtZDaM9ymS9gVDNfKZkvY5LJ86Vng+Qd2DNbGjFrrvQs3y2r3TrsjqNnPIM9srd32XPeAGI7JozKmSsP44gPBMtzNmZ6hNdSKWGkw1tJAGZ5Beb5dD2vpeEOTyUBoIGD2fZgqDHIIxxU8XxXMLBkDjhxA0nucMkG6ySDrux1rd8rFpL8YLYq7pJBLmU8qlXXgDM7gFqs5riBZ/ffrvC6B7OV6aQaIObTSHieZFAWgrA4aeqEP9iAaKMGswX3t8oOmrrS0ZV/3IOZ3KAqlzeMCQrKgUXrb1ee4u85Hx5jQDzA4GkjB7Pdg/lceoonB8jPdcWxhngIJ4No3XNX/hfkF3daa98pK5415HPtOLLhkYVTlFbm/e2oVqtVrUpqvoDUXuBpd03TitgDrK0yoNRKlDDS0QeUmtdH3QhKwx2Y2ra049hoKmMpdL0/GGjMqDRs9IXbb7b2pJKgY0gClsxzLu4maiWCraNgZxq0LEbTPxn54FZ7UhkbRXZAcxC7zWmVtRDLF6PrjcPVbVbPtZfCc25MSmjtSgJAgK4ntkkTUhMpbOwugBYNX1Oxm5utM787WqyuAkEXAVETXJeG7jPm6c6oPz3oOW88+l1PBEEQxLKE7LEEQRCEEqooCIIgCCVtWVEoNcqcGTEk9W6Dlb5adlgzTO2zSjQgkd1zdqV0OAryxmOtdxHYPy3CXisRUXq0zz1vMRqcHpoVBa8hYDMfpxJQZVwB3LmuldsqTa5So2z5WsJcrapQ+nrjH3Ul0gzYgkmcXqETqb7ecvIEU5C3DobqwvALhYt0D5mI0kN5z1U6bEWZ5M6vfOWjOuaDNDzu5yOIFUAVD6Z8cT9vDU4PjYrC8IXAXl1ZBBKuG8EoCjyCOhnTI8YKQEuY98CEs3Jbqck1abhGWaFS5xQN4hXMoWNWiI2cUpdjV9g2ZD1NE/T1TdBzR0IkPqeI0kN4zyso7HUkngsFILPXKizVZVJlbA8mHliw9SZI79E6pkal57Yqbiasz+q8LqrjYUn75HtnNDA9fOdFuVf6mtMsZatL9XCvyFStCPYqwLVwa7wjwh1/dkWw/+pzmWKZvz8LLj23VHdu/S4pjg0AACAASURBVH5BoktWKK99YqlcQatUXrt/k80rCj27bpj042CHVrgK2xfVCmMfDT13f1wrfbl7VcoFnL4sigu7alsQT1l6SFblBn7uooJ9nn3KJB5V3vVZGc5+M4CeW7u80oxHsO0AosG3RVEpz5g1jNkMOhxH0a2KPtjnu70gTxnlcUvkZ3hJynuLyAkNqbwmtyVh4t8HkUlWhkyx7GALujxaY/lua9m09ebjuqaP8tqPbELcHahSXktdP/Vq3xtKCSOsSr6UM4R17ApliYa+MpYyLJ1My9nwFyWwu5DkFgUavql6F5Cpu6Wk6WHmjYVCkmsht8oiMMPSbHjStMokC9N8LHSPqY658NVzM91SrHVVGacg8Wgy2oPZ1s2pvpDm+sIMW6fzsOcO9jH9fnz/m6efbb6AVIfhnBcXrjJNbovBdj2hL5DETqhYNskmnHse5HF1lNdueaCP8tovrBK5m0p5HV+XNCoYz3aMdWrfrQKxWUoZt9ZbqHY39vyYTHfZ96crPWkXBLEdg8jZhtoSpg6GsKeCD9L0aGWmR9CV7vFo7mVlEvMNs4IXKT5Ex9xjDe7xRoWem3kJW3hgAl1sWcdtL+odF/GPR/PxrShi8R7gYB93c9jalcd42Nm/97OaYPuhNkyLmQSzT8V8GTPc0v7W95+ISGzLATVadt3kSgvIv9MX2kyQZiiv7ReJbVONGQSPBCNf2y2qxAzyc7p+oSS32Q1fyRobJI2OVQzNOWcWjoa2Sw+Bz0mvTFI5zWTH+LEGdvMhHT23fZUdg8ixLxLmeJG7lRasbG0u/i2K3n7kwHT9CPTcNqpjHDH0P5AEmAeDV3DLNbl1E7rSl6d0Kms3JwE4lcZ8AXvSgWTQMDJuWF0yTVZe9+43WpzWA6ShfVdjvv01oqCbL2D0HXZvBF2hnama3ysPo7GZ1BGMHJ6pYWOnOnCnh0ks3lPji45EUV8HlbGUWPrnVybNF5CSVRKqYwr89Nx8uEeR1ZmFFKRsDUzI6aE1kiFTWlflimkduEE+wUAR/y/gwLRsMDtqpS93Xdc+yuagp3mm/iAbF2Z/5bVy72+J8tonlr5hhT34ySqvvWH1Dt7KB+Z1wtSowWz5vs9VH7W7zz2oKR5u5TUbHtUxv7B4vxNkMNu4R2G5tUTxYMKjKJOEe1ib91d1zBddPXeQskW7bA1+7TDTY+m6nuYLSK0pY9CjIG7PLi0iLEoY6RhFPIjmWpCX7P3Qa9kemGMJ5cclo/1eIoSYHm25MrtW2kbpS7QW82VXd5qrG68ezC6MqAexo8WcJEGVRIsQQXrU3yhpMbim3HJRahP6sF0a+s1yT5dFvV2Xdj4lDTrR+izdrieCIAgiFJZV1xNBEAQRHKooCIIgCCVaFYWjsTXn5rbTqs6oYY2Skc3pL2FE10hJem4FpOde9lB61IRWReG2E3pme7iWqLdjRcJpzSXKXyHW0v1S2MLnGiE9t4Jloufmnkd3Qdh4Pbd8O4Glr+cG4NKT13DvWqA81e96GogjbrqDWIzVkzO8pqDuueWNxxLbFYeAZGEhAkVzIyE9d820vZ67hJEEUGS09312QdMEPbdqO4HloOd2CyVbWn6poL5JUz6aXqnWWqVYLlZz5qphANVcyZrO6Ex1lWut+XNRgyZZrAh2r2gVTLsVrs51ry51reYcyFfzUmW4+1xmGmU9K0Gt6wae3hm+nttQsrtWr7O/SHru+mHzZcP13BFtJ9BGem7RNgzOZ+58yPytk68UZgO+jOTLTnsbAkaN77FAuK5Z52A2qwsXINVa+ymWs8iYbwTZxCjic7yCXKW1BrLIWG8wc3kgfaT+PsjpI8hsYDdn0l3EwksRFwoz/KZG4xlkrA2aGDU1Ky2rVr1dJVJVdMvhr+fOJqbQL9j0ifTc4VA6lUXygX5DZd1wPbfGdgJLXM8tkvxp+bT88tX0iKcnx2oF29YAptzpY7rgsukyBufySJpCQkeXXsLImjIGGRs4EkbXZX0VxXwZM8ovyLXWasVy0hGkcSpqA5XWGkgif9i01HbH0SPc4yIg3XEkD/bVMPDF98GyimmDnKNO7o4jacVjegpZVlvtoj5VtFl5NatycUno2AI+ccAxc5Keu34qYylh4dtwPbdqO4ElrueOCuPlSLT9QgXld5KcYDK2JeWULWCfOddzMz2FLLLos+95H7Jm+VlfRdEdRw8mpQWxWmtdo2LZR2sdCXZm7sdUgEG3ytgeZOBYR+V9psFoH1U06bmbhb3hFbNfR+P13DrbCTBXWYJ67vg6b0uHbRG1HNy21s7ElTq7nsxugIToTdtfa12TYllXax0Jxtt4cUheObKU359kMkQJR3Q1491xJMcnMDUPWAN3WdH3JKpoNWYrrxFvxqTn1iB8PXdpuMNTSQBogp7bbzsBnqWo545tSXl0+nvSYPKsU5aUhr3PuSxfJbblMCnsVjefHWZSgOqec5g9J8KBdo3xGF+kqm1frbVIsewM6IgHfVRaa8XgkA8i/bB7z2pP/DxxdA28uhXChZxrENStKnb+Zn8zVzL319ZWRStj2tDBbJWeWz14SXrumpAMgooHKxuj55ZtJ7Ac9NzValU56LzATbwpMs+5/Q1pvnLH0ztpwJtO9jPHlDfyrQicc5vselpCiuUlD+m5I4P03K0FpYeH5io8loRimZBCem4fSM/dWlB6SAmpcRUMUiy3IaTnJojlCmnGCYIgCCVkjyUIgiCUUEVBEARBKNGsKPiVl9w828i01uHDGmLFUi4znqEtpmKUw9MjAe2Yckj7XjuR6KDb6BkgFDRky4CQaLAuPVCLIlfinSIAItZah4vhiFpAPmzD6fSIJGO5TZLiFalBUWvf1TpoTqfuqmBUx9TqahVyHbRb7R7EqClXV7Nh9YYzEiW68hlw6S2CFEDSfNVGuBTbojxppSWb/lz6Cs71bguglyc957H3t9W2DFDRYF16SF1PTdBaR4KpInCvaK2TnnjMWPUY4jXl2neVKjrFycKK6HMe2ukR5lgROW6FpkpdrUKtg+bkjpwU0QeFutqSxC2oHvZIlOjiZ6A03MUJJYsbMoxme7mQs/NO1SNMrGDqxR4USzlO9GgrU6pF5BidC3uutR1ANZCokz1vAXm0c3o0UJeuNzlKVyssPg/cKklz9bGp2S5KlOD8qkOXYpybYinQTtcSF3ZFomcKp0wzLlrNG8IU0NBg4ypatS5fXatcNS1Uqmt8T6G1FumYxWiqqwOrxyPAvfre9Zk7zryJwC9fyVffylYCLxSSpsnA+L717LHpIVa7C35P996K7oH7uB1n0ffERgBtJbn7akOCcsadl2X5W6Lg9tsywL2C2n2/har9uXw1KVpx3iRteqSD2fzblPVmwNT84xmM4mnm7dd0l0yPGFZI+20T9hts4uE8krY5FL6mVW1MAZlQ3CfVjJsmVkuf3Wrab1YHzcrYLJtnKc9ZJR1KmFK4c1h1tQp/HbTTLdWV7nFMuko01NWtwnwZk+4uAS2jsV++Mlalc3nSagXbq4oZDT/TiptMTxja/vEM+kyVv5UecrU76lDtA+CMpK4upjMT6NmWgCV6nArQ/cjahWvrojMsxTp5WaXgBqDYMoBtHVkbF/GOJqFqvzuNwaFJTJyxrmKENbc33N4OXRo868kt02NW1nanMWFmvtKpLHCwz8kEiawjxupOY5DJUKVT2ehvXs2a8WYiUUVPj6BjDWPz9GB0F80IFcZidbW7P9k91iDXQTP7dZSAPu7+8mMbnoJApa5e6pgvAKKKtVKe4ffm6O5HaoB57mxtf9IlU1Sr3dXPgI9m3NX15KRXCUfSsMftEtv47ic/uK4nrrtYnXecOAZQwCgU3HYcRVsGAK7xPfd5MtW+Jb6cMsI+P4UJhPBCXCORVhSJbTmmwO/DTGFB+6HOsZvEuDJCYptVYxt7EfhvoFInNWrGm4dAB90dRw+y6Dscx4L1Nuh541X7k0TqasD9xuT8ZiAddO9u5AfYB4jf9MlJ/2Dq6qbiLjCA1g0rAKXaXfkMyDTjPkxPIYtJZNYwL4Rsb0HNyPKOGUumggnkCZMouNWUMJLIMuVZgP3au/uRgrHZW+XMBKDV8omGCCuKCgqH+R2YdBPF2CRG8fbeuxt5TODI8Chm6t7ZLAgSzbioQNBENOOjLqQ6aGNvCKeZXUHhMNuFZHTjyCoJqbpaRRAd9PQRZMZ1CtBg6uqghJoe3f1IDWSZXQ0rKOzNAGyetVrK8wXscWvoZfnKc12HWLyH10+bTiz/lyl/tbtBMNW+CmPznQWu8C0G7H5qGCoFt4r5Mmbg7AJaGRsVbxkgJIb03hyyp0ZwJN0T0GsWsr5ebyijxsFsgYLbHsjxGeRyO4KE++EG8v2IBtYVKnFm8FCpGReFN8hgtnLf4uCoddD6ymJ4BtYU6moVUh20a8A24CCd9H6rtO86hJwenngKJmLY97qU8+Qdeb6S3z8+LZ17LtL28wPqcp26zjMgRPqciwepvQO20Q5mc/jlHYmC22/LAD4N85xK3D8etW4LEK4uXdP1ZHRJlPcG6Q8WnBOivlfWDdJ+qHYUIxoPpQfRStSRH0MsbyPseiqjPM5/UinPhLQwxNgtrlkzAMLCWPxDhVKrQOlBtBrGrn9BB7HD16UHalFkzII/p/sgTY8YA1Q2uToD7oQjWVgCG9YQBEGIsMvOesvMcCDNOEEQBKGE7LEEQRCEEqooCIIgCCVtWVGQKpqQ0k6q6Ig09JE8H8sCn/RgV1iHlLci2TIggmdAs6KQq6L55enBIkqq6HbBrWjw3oNGqqK912XOaydVdEQaeuXzwWm/vRWTXDVfu75eiTQ8/nlORW3x8EkP0wcXZt6SbxngruQD7JXj+wyUMBLwpUSjolCrou2bZ+upR/UCQKrotoPTqnDrVxqvimZ1CsWhLPrauDKOREMvfD4qKOydQMpMh4UCuJXYKg29Sl+vVtSrKGFkjROe6lwKE2v4lwV5npNTczxMIkkPFZItAzCQQ8/7juupvCHXuDC58V2SF0AV7asUtiFVtPltuSratRraut9NUUX7rcxvsCraoyQX5ZMGqqKr5orqovvcFlNFe+DydhANvTo/6Kar8Nmx73utWxuEFw8pupr9erC3YciZK+hz1XzJ+MxZDe5jHxCEU2hukK0iZ54B3xaFvyqaaeaJbKVCSBWtVEXPF5Bi37SqRfSku+y3tOaoooFsQtycb64q2rQNa7meolNF42Afpra5NmFqMVW0m8qZCceRFURDz+rrPagV9SysINIyDBeHgJmykwvYPKfVSgktHq1BfEsc5TMlTL0fR39vHD1WPGxJo9PLcUTj/hibhfEtfLYc4DYTm8tjxnwGtAez5apo9uJFINHB74xGqmgxClU05suYtHXQgCX0sx+gpqiiXd0Adribo4pmNfR9KOrtARKhKhrs6tne/XZcWkkVzTE9It4DxFdDL9HXAxAr6v3yVRmF7R2cYdjAZaQt5ZBlu7xdY6OeAfu64tFCdKfR/34fytvcLxf889F3kK9ga4Ub/1uTwaT5DPhWFIFU0UhgdyHJBJhU0Y1neaiiOeVzkI2ilrEq2kbkANLS0Ku8QzJFvTxfxdclMZnuQ3mvNW5VQfkdyeSU3n7+nnNjo8y4V93xaBHmy5g0e3ISB7zhLA33IcuN04XxmwXsScMpP+by9piIf4siiCradDD5z0KKVhVtvW2EMi2wCapo482fmRSgvOcspIpWstxV0TDfGIUOIB8NvVRfD/gp6mXEtqSQBNP1o1CiG86jFPp9K/V64lEfoW8ZIP8llN9hZkjNFzB6MMj5xou659mfL2OSeQEuPZuBXZppD6wIVdHuwY9gStvIVNFWeEPbu7rxqmjVvscNV0VLB/2ao4pW7q/dBFW0/+Bma6iiZRMsnDSQa+hV+nqlot4PLj3YcxQTPXypLR7ayNI7TEW9oBzhniPXfcsXks7v6pSfwvvuvm95e3LKEnU9qXdqI4jG0hqqaCIkpkeM6fue6bpt0KVVI225MluF0fyjSoJoHVpFFU1Ex1JX1C/RFgVBtAAtpoom6oTdNmEgvwQ2TdOHKgqCIAhCyZLreiIIgiDChSoKgiAIQsmSqyhYa2T085nrg3TprYUyPTjLaVj3NBrNeGsRVRz5Fd/cs95Gz4B/eRXAGhvkNwOWO1oVhb8O2pyhwUaGe7AEKgbBca2CUnAee4MNncgC8qFaZaOh2bp09/3W074L0l91TIlcX+9ViesXMLXGQ5ke1qp2ZrVq/ci01t69CYxnsHULPDnRqNQtrNXy3Ewj5TPQWkRWXim2N6il3NFuUSh10NNTmCkUkccEpqyHmZFWFYeY87mZAjkURcvwfWHOcztg2o0G6tL9VNEy7buhsIB9z4tDWfRpHVPho68HXLoNHdVGPfEwiSQ91Ii11jnkYKlQSphCTl8b0oI0XN0teQbaD1OBEvYMq6D5XGeRoN8K2uKQs0JY9D3h+dpKchee84zVpvyqYdVKYvmKzVyBWYGuUH57jjG6b+e6gnC1gjbdhr1Hmtp3C9VKZF0Fs4++Xrn6WitOdcZDRq35NhCmrr2UM+JSylVzJUfhXhwSr/C34i1TRVvXzXvyatWlWU8aSmvPyvWgz4AexsruoKvPa9WQe80Fdv7wi4dEUe+XHjXHhV097XkWZFsG6GxvEBztFoVcB13C1DuGgyW2JeWYMrVgTZ41jilMTyELHVVwBYXthqm2WjWae6kX+U1LsmlL7b2APBhtr5/SdzyDUTzNvKkfQckUJLImVcOLtLs15tNziuVg2vfSKcadE+AYi46+njXE6u2aFl48WoLefuBUCaVTQH9vHPEBIx6Jh/NIsuLF6SluQZ9MFW2QRcZqcdl51WQ8g4l1CygOmcLOOUbPXdMz0Hrwm5BZum2mh0QaD7mi3i89asYUHy4UBO0w6ZYBftsb1EZtXU9MM6gyNoqs+cAbpkym+8kXvuvJ6Wf0UxMzFYzuytX5KUyMM5bTji5kxnkxVtLWIxu7TTkWXD+lb86RvXWnMWGGJ7ZjELmDTPfBwVxAKVxUSBTLGtr3ylgKfe/k8bQgHsJjPjpomb7evf9D7mCfd1tIWf6oMx6tQwK7141idJ3r5aI7jUFGvFg6leX2uJCpog2SyB82v+vZV8XJn94XmtqeAR2MtNbsWgwdtxxPEg+Vot4nPSJBuWVA+NQ568nY/8B58zMKX2ejllrxU16zFUyAFa9sDeupnOTUrvQ1NvIZHasYGS0sO25diHw0etr3yljK6P8X9JdKj0l00EH19f3cPZflj/rj0RLMlzFjDsDGdkwIx+4S26yNlYwXELtFrVBF10MkWusmkNiWY8qrPswUFvSVGwpFvTQ9okK5ZUD41FdRWJvvsDdvLh+w+6lBdMfRM55xdnvTpj6lr7FxzRGMHJ5xbTKkQZi6dEChWPbXvpeGO6SFq+qYlCD6+gCa9XriUR+CmX9R0rsbeUzgyPAoZti3f5Uqumbq1Vr7XH0s1aCpwRUUDs9w+7VoT6DxU9TL0iNyJFsGyLY30ECkS6+rouC2UmQC2DOuty1f+FhdEl3IjDvbKBoRTmD/XB5gx1q0mm3GfgL2GM2aMlKiPkMZ3f1IIYssdFz67nONWSJcv30dWIUGt6WpWbDFdkygCMmucVbBMJ5Bl3tMSXVMSQL751KYsLoC10wgNee8ofHdJ/wxFTXHo27MGSQ1Ppx6sIVBDP0PANmD4CvQ3t3IDzhdJKPr8iHMlqrzGWgZYkjv7WG6nwNMy+9OY6KUEz471rWF6aFEVV45z0BXmum1Mcfq3NPH+1B0TRE2usPsrjKtMT4zJuZMMa5rsa6hcEIDY3ZCbY76es4lIkEx68m7D0e0NPr3WotaZj0JzglxJuLSSQ/vrK0ltzK75TB37Qo6iE269DbCXATa2HEPYzfJyAdNlxRllMf5TyrlmZAW5C2N9JDq0ptXay1x7DnXYe1ORjQVbg59M9fCOPPnl3dLk19HoN2y8Oz+Vm9aLo/0IM04QRAEoYS6ngiCIAglVFEQBEEQSrQqCkfV67VaEip8FMvsquWw5t9HolguYcRvnrsZl+ar3UlrraLxWuto0oPKpNqJTDPuNjDyq2fV6mpOUe5KzFqPqZGpq93ah2APQ21h9VEsW6uWSyF6QRWKZY8uvlGLw6QYaRJu5UJaaxWN11pHkx7NKJOi0Om7n8kgz4JeWL3hjFQzbmR+w4HEolJXV8ZSxoIna9k/GF/P9AhzzHD52DdJdUyJv7o6V2JWkWtOZaw5HiatpFh2nF2G+LArrDcxs9LT1iFETCvd8/YiGq11JOnRyDIpIp0+J3AsWRoQjasq4mFJNhdUL6BRaMb1YRe0FKs5bmqoqb+VLEhRqcz9NOc2SnV1rVri8OKhHe6IcIeNXyDk1hO7Ve7OPbA01qyiHLKpwG49tak7XmBUzs4/5nyF1trQ2eeZ8Aab4tguWmv+HjlxXA5a6/CIpkwKS6fPhVRbra8ZjxAXE4Y7mM2qq1kZm2XzLOUl/pESpqQuH9UxHh11NbsEX6uVElo8Wg1D6Ohotk09sbXhT2HGkBm6KA132G8yRuvBEvQVhaqI0rMZ9LCtOFOnYRhDjS4Qp5XHaDp8tNaT6Yz9lla0xIstSM1a6+kRw6prv23CfoNdDlrr0IikTApTp+90S3Wle1DUuW+B4hEOIVYUEnX19Ag61jA2Tw9G02zGVnz7H3N7TtwFvlhd7TKOenbG4/sRhVto1hyP1sHZV8S96pvv1+1KT7ocU4ainbW96hBflzQq58BdXD5a6yHHbRNflwzkw2oHrXXpVJbfjyORBd4pG3lyGWitwyGKMkmsqK+tTAK4F7QS0Mfd33rLpPAIqaIQqKu74+hBFn2H41iw3j7my5j07OEs01TIj/F7FTi/GUhd3dvvegPm36jtPtq649FasPuKTHAZfQ8ycN4IvW+VSeTniuhJdwUacLPTattUoAF00lq7xtNcY2pLXWtdP1GUSXJFfThl0m7kB9j9Qeopk8Kl/opCqq429hBwmmcVFA6zzTVjBzJxgqiOKQigrq6MjSI7oGN0rScedRK2ZlxB+f1Ju4lseWu8GAbemVr2KO/db3S9cM1j9wZRFqS1Nlpiirf3Ja61rotIyqQG6PSnjyAzrjMrzC8e9SFMj3oHOdz784IbVOEHwOQDdfwAmeqYL9wgKDvg4xqMCzR4XFs8tJENjFlxCWlgUDk4575vhRzzu67BM25ATjSYaX3XO5DrGUCVpRfn5DH2eZbtpx10f+2GDmZ73EKufaoVecX9bLnTLng8RAPrTpyEeVk2+UBwv7nwBsmzigHeWoiiTPJMrgjimJKWSa5nJ6QySZTnAl1bkB7kemoFpkeM6WyeN5X26dJa+hhpUd4bZAqw4JzpEf3te/2u3uo79Wkj2nWRaB7e9CCFR4tCmvGlAGmt/ZBqrYmmIEsPalE0k+kRYzYLYEwtbPs3w6WM0TrImAV/TrdgY9PYOLPO1oQTjmSBXiKIxkAVBUEQBKGEup4IgiAIJVRREARBEEoi1YyXhv3XABiDJ6754qa2WblAKxKtddiKZTW16H514FaJsmnVRjpsztQpyW/CvFMHkaRHO93zFiMSlTilR03UrRmPRF1trQINU7/dgtSi+9XGWtXM6jbaSIet9A7VhXxvjUjSw+eeq1TRXIUv0jfIlNc167AV4eGuGazQVsaD0VS4X/rUKvEaCZIegVXirb5a3Q/5Vgx1a8aB+tTVhma3hlkgkWito1EsKwmq+62bpaLDriPvqIgkPST33Ee13/ViylGqPDDBPFcq5XWtOmwfBbe1d4od1lG9QlEVD0toNycWSgJQlju1I04Py+HkaGxm0Nf0PVsaj3ArBu2FgBJU6mrjGKODZlcHsqsVZasGhSuWVVrrYjWHXLUo1CWrjlWViuXiEKq5gjy8Mh20dS6EqzI1MMMUdDVw0JXKFt4VrewK62Q1X5LcA9eqVW6lL3evjLQLsgJXGBefvCO758IVuyFpmMPAeZbcq8CtPC8Jq0p5ra2wD6Dg9llR7qAbj6Ca9Chwx9/1mTvOzN86+Yr/jvs6klX7A/lqfsjMw9azx6QHd01XOtVW7sjtAyEPZrvV1cBkegLxOae1Yauia+5eUmutYcuyRG8+imM+XR3Z9ARSongodNCYL2CUeUNpnrHUH/5tytJ/s+GdROYw8HTVfQ9KGFlTxiDztgnTURTbMYjc+ASmrHtsKp8H6537r8o7intutEAs1bdbl91sWK11GeXxpOn8MfxD5b1F5DDjMs+aZyqU17o6bB11td0tIzKyCgkWj6bCxt8mjviA2/brxS9flYY7uJaKfWy+gNQaq1wxrsFJN8czmFi3gOLQJDKJMgbnnPSojKUM0SDTUttjtf7qLHfYrRisLsZQKgq5uhpI2qpemQAubJLIH7a6jhLo5+RlqmM+V5XEQ62DjqNnPIOuWvsum7xrnDutnFXARmW9vxfGXgjIos/u1+xD1i4IEthdACbOmDtvnZkAohbY1XvPm4JEa213zcjzgEh5rTzmGmvwDNgr1NXObmxFIKHaZlg0OUUdj6WL8QLglDsM82VMDg0y99mQ/TnPnfNSleSeG+OF3Cl3XdsC+DwDfkr0nGD/mFAqCpm6erkg10FbmuCngb3B98RtJLEtKSTHM+gyK/zMhqJ+Wg4V+fgzhUxsS8rcjKeCqRfRgE2d2ueeG4h8XsabbCbBFNiCN16V60l6jBtrYJ7XQOrqBHYXkkyB5trrxX6b1otHS9AdR4+npcO2iFqNJGclZgt1v2dApkRXsbTXUcwXMCpz9auOBcBXBw3AepAWuIdLg0imAIuR7UTni7mhjTSM1iY7w0eQ2TDYwK432T3X604QErr2Xaa1jqH/gSQw1O90XzybwST7t0J5XZMOO5C62vBM+c8K849HXYSaHkYPQ+ZZZtugId125QAAFdhJREFU4T5kuTd+qyKpoLA3A17EL8tX3uvadMeRZLu/VQpyjhjiGyaR2es30F5juSNCZ4hDRZC9rrm/VSpcpSZXpbV2H1MofV0DPCrFsjIeVYUO2h2PoPtiN3IwW6RRtq/ho9j2i2cN8VClR6C8I7rnLoW59p0KWfvup6iXartVyut6dNgKdXU9kzLk+nHVs6xByOnhtxUBG49cyZwcw54uzVey/cbd5zDp5BosTxYWXAPqCoV/zeWO7DlfWGqa8RJGOkYRnxMN3qiOLS0qYyljgD3AlqWlYWObU/vN1h5oC+F+hajWbi6kfW8tKD0axdLueiI0MXaU45gvYzKUvmSzC6Ohu7CFD2nfWwtKj8ZCFcVSxZqJpbXYKob04TzAzKLoSMwgP1dfC8CYThlwYLxFsQYA2z0eSwVKj8ayxLqeCIIgiLChFgVBEAShhCoKgiAIQolmRcGvvOTmzLeRtpc1Q4rn/YetGWd01dMj6AhptXAk+uVlAqnECSk62xu0ChHlOdnzEahFYa1A5lbytZG62lAQGB6jUJkekWQst4U0nBWpav0yX6m7C0KV1lp1rHZ1taORdlfQbkV9kIWFegpubzgbrxJ36S2CFEDSfNVGsIWvJE9aacmmv1sz4T7Xs72BZp5UbovQTtsbRFTuyp6PkLqeloq6OhrNeE88ZqzCDPGaMv1yZWwPJh4wlSpzeSC9x27FKDXSKuV1zepqw2EEe8V3EUg4rSrHHWQ8nNnDmoWiQl1dGUuh43AcC6qHvYEq8dKwMevLvucbgmn4lwY5O+94ZypVMPViD4qlHLKnnPviaCZ42R7vkVtgVBT6M/Tq2RahtYio3BU9H1oL9vxW5vqcB9HKU1OjW2RWp3p05bLVqoLVnfphk8RFoRmXr6wUrSwNc6VovbBxDaCRrqpX3Gurq93fM++x6Lr6q8k11dWlXLBV11Eg0nEzn7nj7Pytk68Uq4glq30XCklH+888e9IV2AJFvOiZDHwP3MftOIu+J9J/++RPBaptEWxk+Vui0+eV4N6V8O4V+O77bazyFpSPIntEULtDSEQ6mM2/TVlvBkzNP57BKJ5m3n6PGM1Hhbo78XAeyYNTTjNzegrZgTx212ulVGnGp49wb4XO24sp3yrlgAFG6xtgRXSkmFrv/l5oaaQdWOW1F111daU8Y76dOG/6xULSsVwy3VJd6R4Ute5be6mrPVI9oXzOjV++MlYkc3nSagXbq+Cr9nM1w7TiDO1/EbnxDPreH8QCkx5KdbX0GdCBtQu7upjOTKBnWwKGEymLqQDdj6w9tbYuOu+2CHLkOn0AwHgGGatF7mod8xK+Inqscs4km5hCP9NaHx2rmI60Sdu8bIXVMTg3lgbPenJLs5i9CbrTmDAzn1rdbUrmzAxVOpWN/uaZ4rv2GqQsYUS0b4BCI20gUV5bRwXqaj9tcWm4w6j4X0i7+lEty6X5MsDdX35sw1MQLGd1tfkCIKpYK+UZfhV8dz9SrKzOltwlkX+YPd9fXS1/Bnw0466uJye9SjiShj1ul9jGdz/5wXU9cd3F6ryj2hZBilKnb8bRSo/uOP8Cxo3vuc/jFeKJA073WuLhPPDilBH2+SlMIIQX4hqJtKJIbMsxBX4fZgoL2g+1XN1tZqjDxsj8VAgGWF+sQa5qP6Y6OkKbvRQdJYx0GGMD9v3W0kir3TkydbVMWxyL9wAH+4y3VPMhKr8/Kd77uHc38gPsA8RUIlz6t5e62tNia9WwAlCqq5XPgEwz7sP0FLKYRGYN80LI9hbUjCzvmLGsdVsEhU5fTgkjiSxTnim2fXXT3Y+UuUFY5cwEoNXyiYYIK4oKCodnuIynmyi+6u7e3chjAkeGRzHTUIeQkQGL7g2PRAWCJqIZH3UxX0DKXUkA8NdIy5TXBjWpq3v7kQPThaXSKE8fQWZcpwCNVl0danp09yM1YHYlGFdHYW+G37zJainPF7AnPek6X5KvPNd1iMV7MMl2bUwfQWZc52VKV10teQZqoHQq6xqQNrpegnQ/NQw/nb6M+TJm4OxpURkbRVb75BjSe3PInhrBkXRPwJ0hrVZeSL0gekMZNQ5mC3TQ3J6wikEuqbrbClEhGVB3LBpYd+3vLBk89BwTDLrKVco+KAZ4a0G4f689ACbXSCuV1/Woq7lzFdr3gIN00vutVNRrEHJ6eOIp1Wyb+7kL9mv3P5ePI5+Wzj3nB8uNz/kBdbm6WucZECJ9zsWD1N4B22gHszn88o5M363YT9v6Tee+5Y3955l93NXxMNO5hgkyxSE+/etB0/VkdEmU9wbpDxacE6JuWrW7V3sh6CYimgilB9FK1JEfQyxvI+x6KqM8zn9SKc+EtDDE2GGrWTMAwsJY/EOFUqtA6UG0GpWx0RpmdZqD+SHuAROoRZExC/6c7oM0PWIMUNnk6gy4E45kgTz0BEEsUeyys94yMxxIM04QBEEoIXssQRAEoYQqCoIgCEJJW1YUpIompLSTKjoiDX0kz8eywCc92BXWIeWtlt4yYL6AlFkOalYUclU0vzw9WERJFd0uuBUN3nvQSFW097rMee2kio5IQ698Pjjtt7dikqvma9fXK5GGxz/PqagtHj7pYfrgwsxb8i0DShgRVVRNKks0Kgq1Ktq+ebaeelTvrYhU0W0Hp1Xh1q80XhXN6hSKQ1n0tXFlHImGXvh8VFDYO4GUmQ4LBXArsVUaepW+Xq2oV1HCyBonPNW5FCbW8C8L8jwnp+Z4mESSHiokWwa0FL5L8gKoon2Vwjakija/LVdFu1ZDW/e7Kapov5X5DVZFe5TkonzSQFV01VxRXXSf22KqaA9c3g6ioVfnB910FT479n2vdWuD8OIhRVezXxeCZ4b7XcUWDp6yx7VqXJHPvRYG41zfFoW/Kppp5olspUJIFa1URc8XkGLftKpF9KS77Le05qiigWxC3JxvriratA1ruZ6iU0XjYB+mtrk2YWoxVbSbypkJx5EVREPP6us9qBX1LKwg0jIMF4eAmbKTC9g8p9VKCS0erY16CwdeirhQmOG9YLJ87i535vJ2q0p7MFuuimZ3KisCiQ5+ZzRSRYtRqKIxX8akrYMGLKGf/QA1RRXt6gaww90cVTSroe9DUW8PkAhV0WBXz/but+PSSqpojukR8R4gvhp6ib4egFhR75evyihs7+AMwwYuI20phyzb5e0aG/UM2NcVj3aElTTy95wrAwDI8rnx4jAovF++FUUgVTQS2F1IMm8EpIpuPMtDFc0pn4NsFLWMVdE2IgeQloZe5R2SKerl+Sq+LonJdB/Ke61xqwrK70gmp/T28/ecGxtlxr3qjkeLY/buqLZwqIztQQZOL4ZwM7aA+LcogqiiTQeT/yykaFXR1ttGKNMCm6CKNt78mUkBynvOQqpoJctdFQ2z+1joAPLR0Ev19YCfol5GbEsKSTBdPwoluuE8SqHft1KvJx71Ee6WAcbLNNttWTicNV/Q1Vs4lN+ftCsUq0zWwWgUWC95RovLPlNrXEWqinZrrYMpbSNTRVvhDW3v6sarolX7HjdcFS0d9GuOKlq5v3YTVNH+g5utoYqWTbBw0kCuoVfp65WKej+49GDPUUz08KW2eGgjS+9GKup9t3BgyuQCUyZp5/NkNT/nTE5Zoq4n9U5tBNFYWkMVTYTE9Igxfd8zXbdRXVrRbuEgoi1XZqswmn9USRCtQ6uooonoaKyiPsotHMQs0RYFQbQALaaKJuqE3TZhIN/cTdNC38JBDVUUBEEQhJIl1/VEEARBhAtVFARBEISSaCuKiNTdpFFeGrCGz3DmnkdHNDroaDTjywF1evArk8PKW+1T7oSfr+rXjIPRPrs1C0p1d+3oa5SDJWZlLNVaPvhacGvfPellpiWXVi5dhke3UKvy2XtdNj0M9csC8qEagKNBroOuB7XWWqnuVunCuTzgejnz0YyrkIbHN88pUIVHcUydHtZq8HDzlrjcMfK4O75OpdIMwtfX160ZtxxQ8mXiYnV33Qg1ypa/RSzTWzawEsKqa7re9BRmCkXkMYEp+8FzdBkLhSSjueBnUdSifOaUInN5oJ3TIyIdtFBrrVR3q/TcJYwkgCKrYLcLdbVmXIVK3Q1AneekqOKhEdZm6Lk95U4C+0s5ZFm55HwBowdzKDZzVhRC1qX7Lg7U1Iy3gj5ZtGJXtJLZgPnbo9aVqKRFeuqqe7Unq/rNVfO2OtlaZeleFamp+9Vd1euzSrg45KzmFq0gFa96Dkv5bFyH/135tWW6dE617lnRq1AsVxeMFdUl5t6a1y0OiVfNB49zNLCr2NV6bheq/KC9LYCPurtG7XageGiHlfuFGvNtcNj84zUO8HkyjC0DikOo5grefKyLca/1V/yHohlvFUSywli8x3ExyTBlefzbNONPmR5BR4J3q1hvTKXhDu5Na6Eww2yik0XGbG1lE6OGGty2jqqV16Vn2ZZRQPHdeAZdwiZ7CVPvGL6c2JaUYzXVRKYZ12Z+ChPjegpqpS4dwGQ6Y7dyi0OsM8tHsYxJZA4DT1fNrglT2Jd4OI8kKzOcnqphkVxU8OpuHT23feYpxnPkgtOMq9BRd7N5TrPLJUg8tMPaJBIHzE3bxkbQ904eT9uLfSsobDcM2VUzz6VedDZLqnnLAADZtNXicvJxVISiGV/qGOK7pwWW0QrK7/Cq79iWFPMAMcfc+l4f5XV8XdIomEUFsp9imesGcOyolbFRZC1ZWHc/Ulz3kz9izbh3a1K+a4kxy66ZQGpOx9bqo0sHgKGiXVnH17EvLn6KZTD7QRh92ft7AXSnMcjIDEunsi2yb4RI3Q3I9dzMmWMpV6HFINSM+6jdZepuzuRqFFpdbHdXTZpxv7C2GgnsLgCZtCvfzE9hYpx5Bjq6kBlnZJy1bhkAMGWS0f0mqmBlGPur6DyLBiFrxpsLX2AYsC2ilkOhvLY3ytk25X1oZYplJUbGc9TERoZ17JS1w2/q4+6fZrXn+hlTqUtXUI9iObHN2sSlhKmDrbChjdhZpqPnroyljK2GRf3kUi+QRO2upe62MM3QzN91acbbyHXlseFauMZvvM+IjNqegSgIWTMelHA1yrEtKY+ee08aTE3t1OSl4T6PKlrWTZXYlsOke0cz4wxD6/2sc0Rbl66rvO7dbwxmilTlQbA2SmIz3Vw+cPdTY9DVpXupVbEMAOjdjTwmcGR4FDOsRl4L0WyyepCru/303KXhDmklIdeMq/BRd7vCfSQ9idw2/6v7xaO2sOoQdlop6I6jZzzDdRnpUfszoIPRC6A/602j6ymB/XMpTEi6D6xuh670pNNPqd1/bc1YCGkL1O40Jko9TFdHBj0lK6zGpkpWP/vouqJ36lzvbqPZ7O7S6d1vjD0IulcSBxaQf4fZbe2dPBZ0av3uNCZKOb7f38647uZ6H1DnTlzCPl4zE0fZt6kIkRnHLmTGnfEP7r6CHWvRm3JpjDVY6TGKeEF7iyEYb8NA9iBqeBEyZ8LUW6GbWHtecFvFWi9U3WlMlODkR7YwnS9g9CBc41TWvbMqziyXl3WmkCcOLCD1YpfdGuUqMNfuf9piPFU86girP+GmlZoE9puz/VS7RwrPrPEZiILmu57aqGlJLH2UXTYRnktEgUDHbR2htApEExUepFEmWg2z2yToILa5MIwKnjaA0qommt+iIIimY7x5ZsaBZIH2MWl/nPQEjNl6bbc3dotBFQVBEAShhOyxBEEQhBKqKAiCIAglWhWFvw7anOoY6hzy8PXL0aiilwdRKJYpPZYIrOW1acZUTWjrg5rQqigi00FPj0gyVviaXMBPTcyvXXAntEr5XOsxNXK1O3fNgHOrleGx58N7Hx6l2r1GgqRHoAJImq/aCJcuX5QnrTVMqrzhziPe43oFpec89v6arrRqKcialSbR9K0P3C+9qi0cVGWSurxSIg2PYLsBs4wIqevJXKYf8nSzUDW5FhI1cWVsDyYeWGB02I64S6lYVumglapoFWq1u1Fxm/9KlnZC46qKeFjCxwXVwy5Uu9eJJD1Kw13IbGDCuoH1By0X+JX0/GysCqZe7EGxlEP2lHNf7Lwxl0eSOZ+d9ZMsLAiVGn4457l9Tu1GI7c+UOnS1c+5ukySH1OjUrsDHm2ItXhYTzJbrUqVvax+W6Knhkf57FZBB1RpRw4bVx/FsguvYljvGIem2r1alWnBhb+uF49SzqXmbgIipTTzmVBPbavk/fKVK08K7rP1z8rr9eig5c9ADffAfdyOs+B7kvO186DPecJtBSS6cUsf7on/XL6aHMhX80Pee+49z3u/HXU/c925fDXp0me3whYINmy6BHjO1cp0fZ26Wu3uLiMc6m9RmII6oXxt+gj3Vui8vZjysVKOF2a1ih3S9CL190JPsWzD66D1j/H4q92dJqK2VTNQPJqMSDjXHUePr+rFL1+Z8+vZPGm1gm1DgPNGPsO83dWsg5Y+AzpkhdoYwFCy9GxLwPAwOdZbHTgtSE1ddIZgUqYv55geMazTdgsYzEZKAMYzyFitXFfrmJdNFtHj8q1lE1PoZzZoGh2rmBZgVnZphLU1TMC8SifQFg5smRTkmAt/tTtrunXyf7SznkzxXVgDRo3B2iXP9UDLFMs2Mh20/Jhaz61SuzOWzxLQx93fGlXRywFLjCioWCvlGSRZEWB3P1IDIeiglc+An4Kb73pyuo9KOJKGPW6X2MZ3P/nBdT1x3cXqvOPEUSwrFFE6lWWMxR3oSGRd4k0mPbrj/IuLyyGVdb0osOmVOOB0zSUeZmSX81OYQIvsKyLRpftv4SApk6THalW7u/dyATJmt1TEFYU5yFXtx5RwIKfVKGHELTXTUiyLddB+x2R67kBq997dyA+wD1AYqugm4y4wAL5F1HIodNDKZ0Cu4FYyPYUs++aXyALspks1I8k7ViyZCibI6nVuHxPBdcWUMJLIMucWoT1U3t2PlLmRT+XMBKDT8okagdNO7zkXlEm+x+pUu1tX2ZKyx4cbtI7CyIDFoUm+60BUIGgimvFRF/MFpIQ33U+xLNdBq48pCKJ2nz6CzLhOARpEFR2cUNOjux+pAXbXugoKezMA+8ZvvZXOF7DHrRKX5SvPdR1i8R5eJe9SXsvR1UFLnoEaMDbSWuAK32LA7qdGYWzAVUOPwnwZM+agM+DYdPWIIb03h+ypERxJ92AwkJIl3K0PAIUu3e85l5ZJPscU+KndWbgtEzSGP1yDcd6BPvcxa7DEc0ww6MoNAgYZzFYO/ASH3/faPSjJ3wPPoJ5nAJUZdJUc84XbM1swCF3TXrnyeLgHcgNfO+T08MRTsJ+1fT9LOU/ekecr+f3j08u556J91/lBQe8zIn0+dPO4dDBbPODoGbCNeDCbwyfvuJ8t+zruMLr+5tMwb+x3PqcbDzOda5ggY/yu/n7SPlcTTrDg74HoOVeXSeryygcuvRT7zTP3ro1dT6omGdF4KD2IVqKO/EhbH3j4/wGyNCj256YDIAAAAABJRU5ErkJggg==;" vertex="1" parent="1">
          <mxGeometry x="532.5" y="919.9999999999999" width="204" height="135.65" as="geometry" />
        </mxCell>
      </root>
    </mxGraphModel>
  </diagram>
</mxfile>
